PathFileType	4	(X/Y/Z)	RBDS027static.trc
DataRate	CameraRate	NumFrames	NumMarkers	Units	OrigDataRate	OrigDataStartFrame	OrigNumFrames
150.000000	150.000000	4	48	mm	150.000000	56	150
Frame#	Time	L.Ankle			L.Ankle.Medial			L.ASIS			L.GTR			L.Heel.Bottom			L.Heel.Lateral			L.Heel.Top			L.HF			L.Iliac.Crest			L.Knee			L.Knee.Medial			L.MT1			L.MT2			L.MT5			L.PSIS			L.Shank.Bottom.Lateral			L.Shank.Bottom.Medial			L.Shank.Top.Lateral			L.Shank.Top.Medial			L.Thigh.Bottom.Lateral			L.Thigh.Bottom.Medial			L.Thigh.Top.Lateral			L.Thigh.Top.Medial			L.TT			R.Ankle			R.Ankle.Medial			R.ASIS			R.GTR			R.Heel.Bottom			R.Heel.Lateral			R.Heel.Top			R.HF			R.Iliac.Crest			R.Knee			R.Knee.Medial			R.MT1			R.MT2			R.MT5			R.PSIS			R.Shank.Bottom.Lateral			R.Shank.Bottom.Medial			R.Shank.Top.Lateral			R.Shank.Top.Medial			R.Thigh.Bottom.Lateral			R.Thigh.Bottom.Medial			R.Thigh.Top.Lateral			R.Thigh.Top.Medial			R.TT			
		X1	Y1	Z1	X2	Y2	Z2	X3	Y3	Z3	X4	Y4	Z4	X5	Y5	Z5	X6	Y6	Z6	X7	Y7	Z7	X8	Y8	Z8	X9	Y9	Z9	X10	Y10	Z10	X11	Y11	Z11	X12	Y12	Z12	X13	Y13	Z13	X14	Y14	Z14	X15	Y15	Z15	X16	Y16	Z16	X17	Y17	Z17	X18	Y18	Z18	X19	Y19	Z19	X20	Y20	Z20	X21	Y21	Z21	X22	Y22	Z22	X23	Y23	Z23	X24	Y24	Z24	X25	Y25	Z25	X26	Y26	Z26	X27	Y27	Z27	X28	Y28	Z28	X29	Y29	Z29	X30	Y30	Z30	X31	Y31	Z31	X32	Y32	Z32	X33	Y33	Z33	X34	Y34	Z34	X35	Y35	Z35	X36	Y36	Z36	X37	Y37	Z37	X38	Y38	Z38	X39	Y39	Z39	X40	Y40	Z40	X41	Y41	Z41	X42	Y42	Z42	X43	Y43	Z43	X44	Y44	Z44	X45	Y45	Z45	X46	Y46	Z46	X47	Y47	Z47	X48	Y48	Z48	

57	0.3733333333333334	711.5577392578125	96.26545715332031	1046.62353515625	728.421630859375	100.8270492553711	1125.613403320313	813.5054321289063	920.4466552734375	1085.217407226563	744.21728515625	834.8531494140625	1044.779052734375	637.2684326171875	33.46777725219727	1084.042602539063	669.4578857421875	55.54875183105469	1041.044311523438	649.6204833984375	82.11431884765625	1086.594604492188	701.0145263671875	418.1810607910156	1037.36376953125	757.4168701171875	993.150390625	1061.657836914063	713.4509887695313	475.3236389160156	1046.934692382813	704.6530151367188	462.8831481933594	1167.963134765625	853.3627319335938	52.5400276184082	1128.13720703125	860.995361328125	64.98663330078125	1082.536743164063	821.7924194335938	48.39146423339844	1017.552062988281	659.8655395507813	953.1986694335938	1179.95703125	695.4942016601563	161.2713928222656	1035.673583984375	660.0119018554688	155.4540710449219	1078.09814453125	671.4581298828125	237.8182983398438	1028.120727539063	640.9308471679688	233.7799072265625	1072.656616210938	704.5166625976563	587.4134521484375	1028.463012695313	652.3967895507813	586.5194091796875	1077.462036132813	701.0288696289063	697.6102294921875	1030.86962890625	654.0927734375	697.018310546875	1080.522094726563	760.2311401367188	397.2614440917969	1088.161743164063	709.0023803710938	97.07920837402344	1405.301147460938	732.78662109375	111.2766647338867	1328.589111328125	830.4993286132813	928.895751953125	1352.703125	761.8211059570313	842.2334594726563	1404.538940429688	640.032958984375	37.65644073486328	1369.724487304688	672.69384765625	55.2216682434082	1410.904296875	649.2256469726563	82.83848571777344	1369.717163085938	725.9007568359375	427.7904357910156	1419.159790039063	775.6784057617188	1006.701782226563	1374.2763671875	725.3156127929688	488.5314331054688	1410.49267578125	720.5240478515625	471.3244934082031	1290.740234375	852.952880859375	51.5578498840332	1316.763061523438	860.3788452148438	67.5784912109375	1366.878173828125	826.2152709960938	47.50114822387695	1432.654296875	668.9075927734375	955.4756469726563	1278.002807617188	696.7133178710938	159.8926239013672	1412.981567382813	663.6885375976563	166.3212585449219	1374.309814453125	687.6685180664063	242.7255401611328	1431.629760742188	652.9923095703125	244.542236328125	1390.44482421875	731.0166625976563	574.3549194335938	1426.119262695313	671.1832275390625	575.3950805664063	1383.017333984375	727.4750366210938	684.085693359375	1427.552978515625	671.741455078125	685.4041748046875	1385.64990234375	778.7652587890625	407.7416687011719	1367.83740234375	
58	0.38	711.5614624023438	96.27030944824219	1046.62255859375	728.41259765625	100.8345718383789	1125.614624023438	813.4131469726563	920.4484252929688	1085.239990234375	744.1182861328125	834.861083984375	1044.809692382813	637.2587890625	33.46853637695313	1084.043212890625	669.4638061523438	55.5435791015625	1041.0498046875	649.6231689453125	82.1075439453125	1086.604125976563	700.9818115234375	418.1830749511719	1037.371215820313	757.349365234375	993.1888427734375	1061.689086914063	713.4036254882813	475.3307800292969	1046.94970703125	704.6073608398438	462.8856201171875	1167.97216796875	853.3488159179688	52.55010986328125	1128.124755859375	860.9850463867188	64.94998168945313	1082.519287109375	821.7892456054688	48.4037971496582	1017.557189941406	659.75732421875	953.193359375	1179.986328125	695.4820556640625	161.2649078369141	1035.687133789063	660.0033569335938	155.4492797851563	1078.1103515625	671.4434814453125	237.8193817138672	1028.134399414063	640.91357421875	233.7746734619141	1072.659912109375	704.4588012695313	587.4054565429688	1028.475952148438	652.3240966796875	586.5105590820313	1077.490478515625	700.9772338867188	697.4505615234375	1030.811889648438	654.0191650390625	696.9967651367188	1080.54150390625	760.2044677734375	397.2786254882813	1088.161254882813	708.9990844726563	97.08363342285156	1405.307373046875	732.7692260742188	111.2679595947266	1328.592041015625	830.4204711914063	928.9088745117188	1352.710571289063	761.7655639648438	842.2296752929688	1404.556762695313	640.0308837890625	37.65758514404297	1369.741088867188	672.702880859375	55.22505187988281	1410.903442382813	649.2333374023438	82.84371185302734	1369.716552734375	725.871826171875	427.7936706542969	1419.17041015625	775.6046142578125	1006.720703125	1374.297241210938	725.28076171875	488.5238952636719	1410.519409179688	720.4778442382813	471.3329467773438	1290.745483398438	852.9486694335938	51.56350326538086	1316.756469726563	860.3768920898438	67.56253051757813	1366.877075195313	826.2119140625	47.50513076782227	1432.65478515625	668.80810546875	955.46875	1278.026977539063	696.70849609375	159.8828125	1412.989379882813	663.6893920898438	166.3171081542969	1374.31982421875	687.6582641601563	242.7261505126953	1431.6357421875	652.98291015625	244.529052734375	1390.4453125	730.9844360351563	574.3560791015625	1426.130859375	671.1460571289063	575.3917846679688	1383.040771484375	727.4285888671875	684.0834350585938	1427.572387695313	671.6808471679688	685.3917846679688	1385.678955078125	778.7401123046875	407.7573547363281	1367.838623046875	
59	0.3866666666666667	711.5608520507813	96.26824188232422	1046.632690429688	728.4130859375	100.8426361083984	1125.627197265625	813.3284912109375	920.4652099609375	1085.25244140625	744.0397338867188	834.855224609375	1044.822387695313	637.2720336914063	33.47053146362305	1084.041137695313	669.45556640625	55.54144287109375	1041.052001953125	649.61962890625	82.113525390625	1086.599853515625	700.9495239257813	418.1767883300781	1037.382080078125	757.2373657226563	993.1762084960938	1061.7138671875	713.3703002929688	475.3276062011719	1046.95166015625	704.572021484375	462.8868103027344	1167.9814453125	853.3489379882813	52.54679489135742	1128.127319335938	860.9782104492188	64.94968414306641	1082.523681640625	821.7835693359375	48.40494155883789	1017.552185058594	659.66015625	953.1895751953125	1179.995239257813	695.462646484375	161.265869140625	1035.683959960938	659.9939575195313	155.4382781982422	1078.125732421875	671.4177856445313	237.8126525878906	1028.138549804688	640.9002075195313	233.7678527832031	1072.672485351563	704.3856811523438	587.405517578125	1028.489501953125	652.2575073242188	586.4932861328125	1077.520263671875	700.90966796875	697.4549560546875	1030.822509765625	653.9540405273438	696.986328125	1080.563354492188	760.1680908203125	397.2836303710938	1088.165405273438	709.009765625	97.08733367919922	1405.30908203125	732.7664184570313	111.2794876098633	1328.591186523438	830.33984375	928.9151000976563	1352.718872070313	761.7119750976563	842.225830078125	1404.572387695313	640.0394897460938	37.65551376342773	1369.736328125	672.698486328125	55.22032165527344	1410.905151367188	649.221435546875	82.84621429443359	1369.722900390625	725.8477172851563	427.7918701171875	1419.18212890625	775.515380859375	1006.721923828125	1374.310791015625	725.2505493164063	488.5287475585938	1410.531494140625	720.457763671875	471.3375549316406	1290.75634765625	852.94140625	51.55836486816406	1316.766723632813	860.371826171875	67.57547760009766	1366.880859375	826.1990356445313	47.50489044189453	1432.663940429688	668.7106323242188	955.460693359375	1278.0537109375	696.7022094726563	159.8776550292969	1412.982421875	663.67529296875	166.30419921875	1374.323364257813	687.6419677734375	242.7262878417969	1431.644653320313	652.9627075195313	244.5197143554688	1390.465209960938	730.947998046875	574.3482666015625	1426.142333984375	671.1127319335938	575.3801879882813	1383.048583984375	727.3799438476563	684.0869750976563	1427.588623046875	671.622314453125	685.3838500976563	1385.704345703125	778.7070922851563	407.7647705078125	1367.839599609375	
60	0.3933333333333334	711.5485229492188	96.28110504150391	1046.609130859375	728.4047241210938	100.8442153930664	1125.6220703125	813.2353515625	920.4705200195313	1085.267944335938	743.9457397460938	834.8531494140625	1044.8369140625	637.2667846679688	33.47015380859375	1084.046020507813	669.4530029296875	55.5420036315918	1041.04833984375	649.623046875	82.10828399658203	1086.595703125	700.89599609375	418.1736450195313	1037.392211914063	757.123291015625	993.1900024414063	1061.740478515625	713.301025390625	475.336669921875	1046.954223632813	704.5130615234375	462.8923645019531	1167.999755859375	853.3397827148438	52.54963684082031	1128.1201171875	860.9815673828125	64.95658111572266	1082.516845703125	821.7850341796875	48.40552520751953	1017.557922363281	659.56201171875	953.1775512695313	1180.036254882813	695.45556640625	161.2649993896484	1035.69091796875	659.9949951171875	155.4288787841797	1078.131103515625	671.3946533203125	237.8061370849609	1028.152709960938	640.879150390625	233.7541046142578	1072.698120117188	704.3225708007813	587.3931884765625	1028.503540039063	652.1934204101563	586.4733276367188	1077.555053710938	700.8230590820313	697.4531860351563	1030.843627929688	653.8894653320313	696.9695434570313	1080.590576171875	760.1400146484375	397.2781982421875	1088.175659179688	709.000732421875	97.07727813720703	1405.313354492188	732.7630004882813	111.2717971801758	1328.586547851563	830.2513427734375	928.9180908203125	1352.724975585938	761.6561889648438	842.2249755859375	1404.585083007813	640.0411987304688	37.66028213500977	1369.74072265625	672.6935424804688	55.22135162353516	1410.9091796875	649.2277221679688	82.84161376953125	1369.71630859375	725.818115234375	427.7864379882813	1419.19384765625	775.4323120117188	1006.722412109375	1374.325439453125	725.2191772460938	488.5216979980469	1410.535034179688	720.3999633789063	471.3313903808594	1290.762573242188	852.9331665039063	51.56148910522461	1316.763427734375	860.369384765625	67.57424926757813	1366.87109375	826.2017822265625	47.50740432739258	1432.654052734375	668.6255493164063	955.4580078125	1278.085205078125	696.698486328125	159.873046875	1412.999145507813	663.6722412109375	166.2957916259766	1374.329467773438	687.6328125	242.7088012695313	1431.655639648438	652.9501342773438	244.5175170898438	1390.47021484375	730.9183959960938	574.3426513671875	1426.146606445313	671.0829467773438	575.3640747070313	1383.064697265625	727.3379516601563	684.088134765625	1427.608276367188	671.564697265625	685.3742065429688	1385.719848632813	778.68408203125	407.7613830566406	1367.830322265625	
